<svg width="12" height="12" viewBox="0 0 12 12" fill="none" xmlns="http://www.w3.org/2000/svg">
<path d="M11.5755 7.97534L7.69957 6L11.5755 4.02466C11.7705 3.92515 11.9127 3.76133 11.9711 3.56922C12.0294 3.37711 11.9988 3.17244 11.8862 3.00019C11.7735 2.82794 11.5881 2.70224 11.3705 2.6507C11.1528 2.59916 10.9209 2.62601 10.7258 2.72534L6.84965 4.70082V0.75C6.84965 0.551088 6.76013 0.360324 6.60079 0.219672C6.44145 0.0790199 6.22534 0 6 0C5.77465 0 5.55854 0.0790199 5.3992 0.219672C5.23986 0.360324 5.15034 0.551088 5.15034 0.75V4.70082L1.27424 2.72532C1.07905 2.62598 0.847169 2.59914 0.629563 2.65068C0.411957 2.70222 0.226448 2.82793 0.113818 3.00017C0.00118823 3.17242 -0.0293587 3.37709 0.0289206 3.5692C0.0871999 3.7613 0.22952 3.92513 0.424586 4.02463L4.30044 6L0.424586 7.97534C0.22952 8.07485 0.0871999 8.23867 0.0289206 8.43078C-0.0293587 8.62289 0.00118823 8.82756 0.113818 8.99981C0.226448 9.17208 0.411957 9.29772 0.629563 9.34932C0.847169 9.4008 1.07905 9.37404 1.27424 9.27468L5.15034 7.29918V11.25C5.15034 11.449 5.23986 11.6396 5.3992 11.7803C5.55854 11.921 5.77465 12 6 12C6.22534 12 6.44145 11.921 6.60079 11.7803C6.76013 11.6396 6.84965 11.449 6.84965 11.25V7.29918L10.7258 9.27468C10.9209 9.37404 11.1528 9.40092 11.3705 9.34932C11.5881 9.29784 11.7735 9.17208 11.8862 8.99983C11.9988 8.82758 12.0294 8.62291 11.9711 8.4308C11.9127 8.2387 11.7705 8.07487 11.5755 7.97537V7.97534Z" fill="#2D2B5C"/>
</svg>
