<svg width="21" height="21" viewBox="0 0 21 21" fill="none" xmlns="http://www.w3.org/2000/svg">
<path d="M16.3709 6.30862C16.2896 6.22661 16.1928 6.16151 16.0862 6.11709C15.9795 6.07267 15.8652 6.0498 15.7497 6.0498C15.6341 6.0498 15.5198 6.07267 15.4131 6.11709C15.3065 6.16151 15.2097 6.22661 15.1284 6.30862L8.60965 12.8362L5.8709 10.0886C5.78644 10.0071 5.68675 9.94289 5.5775 9.89983C5.46825 9.85678 5.35159 9.83567 5.23418 9.8377C5.11677 9.83973 5.00092 9.86488 4.89322 9.91167C4.78553 9.95848 4.68811 10.0261 4.60653 10.1105C4.52494 10.195 4.46079 10.2947 4.41774 10.4039C4.37469 10.5132 4.35357 10.6298 4.3556 10.7472C4.35763 10.8647 4.38277 10.9805 4.42958 11.0882C4.47638 11.1959 4.54394 11.2933 4.6284 11.3749L7.9884 14.7349C8.06974 14.8169 8.16652 14.882 8.27315 14.9264C8.37977 14.9709 8.49414 14.9937 8.60965 14.9937C8.72516 14.9937 8.83953 14.9709 8.94616 14.9264C9.05278 14.882 9.14956 14.8169 9.2309 14.7349L16.3709 7.59487C16.4597 7.51293 16.5306 7.41349 16.5791 7.3028C16.6276 7.19211 16.6526 7.07258 16.6526 6.95175C16.6526 6.83091 16.6276 6.71138 16.5791 6.60069C16.5306 6.49 16.4597 6.39056 16.3709 6.30862Z" fill="#1A1930"/>
</svg>
