<svg width="21" height="21" viewBox="0 0 21 21" fill="none" xmlns="http://www.w3.org/2000/svg">
<path d="M18.375 9.625C17.85 9.625 17.5 9.975 17.5 10.5C17.5 13.0375 16.1875 15.3125 14 16.5375C10.675 18.4625 6.3875 17.325 4.4625 14C2.5375 10.675 3.675 6.3875 7 4.4625C9.8875 2.8 13.3875 3.4125 15.575 5.6875H13.475C12.95 5.6875 12.6 6.0375 12.6 6.5625C12.6 7.0875 12.95 7.4375 13.475 7.4375H17.4125C17.9375 7.4375 18.2875 7.0875 18.2875 6.5625V2.625C18.2875 2.1 17.9375 1.75 17.4125 1.75C16.8875 1.75 16.5375 2.1 16.5375 2.625V4.2C14.875 2.625 12.775 1.75 10.5 1.75C5.6875 1.75 1.75 5.6875 1.75 10.5C1.75 15.3125 5.6875 19.25 10.5 19.25C15.3125 19.25 19.25 15.3125 19.25 10.5C19.25 9.975 18.9 9.625 18.375 9.625Z" fill="#1A1930"/>
</svg>
