<svg width="21" height="21" viewBox="0 0 21 21" fill="none" xmlns="http://www.w3.org/2000/svg">
<path d="M17.385 7.52502C17.3198 7.37515 17.214 7.24654 17.0794 7.15375C16.9449 7.06096 16.7871 7.00771 16.6238 7.00002H12.6163L13.7275 2.85252C13.7629 2.72274 13.7679 2.58654 13.7421 2.45452C13.7163 2.32249 13.6604 2.19819 13.5788 2.09127C13.4973 1.98539 13.3926 1.89958 13.2728 1.84042C13.153 1.78127 13.0212 1.75035 12.8875 1.75002H6.76254C6.565 1.74326 6.37099 1.80357 6.2121 1.92115C6.05322 2.03873 5.93882 2.20663 5.88754 2.39752L3.54254 11.1475C3.50715 11.2773 3.50216 11.4135 3.52796 11.5455C3.55376 11.6776 3.60965 11.8019 3.69129 11.9088C3.77371 12.0158 3.87979 12.1024 4.00124 12.1616C4.12268 12.2208 4.25619 12.251 4.39129 12.25H7.77754L6.19379 18.1475C6.1419 18.3377 6.15575 18.5398 6.23308 18.7211C6.31042 18.9025 6.44671 19.0523 6.61988 19.1465C6.79305 19.2407 6.99295 19.2737 7.18718 19.24C7.38142 19.2064 7.55861 19.1082 7.69004 18.9613L17.2275 8.46127C17.3411 8.33692 17.4164 8.18244 17.4443 8.01637C17.4723 7.8503 17.4517 7.67969 17.385 7.52502ZM8.81879 15.12L9.75504 11.62C9.79044 11.4902 9.79543 11.354 9.76963 11.222C9.74383 11.09 9.68794 10.9657 9.60629 10.8588C9.52478 10.7529 9.4201 10.6671 9.30028 10.6079C9.18045 10.5488 9.04867 10.5178 8.91504 10.5175H5.55504L7.42754 3.50002H11.7413L10.63 7.64752C10.5944 7.7797 10.5902 7.9184 10.6179 8.05248C10.6456 8.18655 10.7043 8.31226 10.7894 8.4195C10.8745 8.52673 10.9836 8.6125 11.1079 8.66991C11.2322 8.72731 11.3682 8.75475 11.505 8.75002H14.6288L8.81879 15.12Z" fill="#1A1930"/>
</svg>
