<svg width="40" height="40" viewBox="0 0 40 40" fill="none" xmlns="http://www.w3.org/2000/svg">
<path d="M38.2976 14.206L38.3338 14.2114H38.3704C38.6512 14.2114 38.9641 14.3929 39.2046 14.7504C39.443 15.1046 39.5494 15.5489 39.478 15.9235L39.9692 16.0171H39.4692C39.4692 16.2869 39.3425 16.5149 39.1374 16.6224L39.0673 16.6592L39.012 16.7158L30.8183 25.1007L30.6409 25.2823L30.6828 25.5326L32.6806 37.4771C32.6807 37.4778 32.6808 37.4784 32.6809 37.479C32.836 38.4611 32.228 39.2382 31.5195 39.4142H31.176C30.9664 39.4142 30.8063 39.4131 30.6755 39.3935C30.5738 39.3782 30.5395 39.3581 30.5348 39.3555L30.4861 39.3044L30.4195 39.2674L20.2273 33.6076L19.9846 33.4728L19.7418 33.6076L9.54971 39.2674L9.53772 39.2741L9.52612 39.2814C8.81982 39.7259 7.92826 39.4741 7.43824 38.6344C7.30586 38.3467 7.29533 38.0523 7.29478 37.6497L9.28637 25.7423L9.32824 25.4919L9.15083 25.3103L0.959378 16.9277C0.346191 16.2824 0.346875 15.3299 0.96143 14.6852L1.01653 14.6274L1.05088 14.5554C1.1424 14.3634 1.32489 14.2114 1.79861 14.2114H1.83522L1.87144 14.206L13.2627 12.529L13.5312 12.4895L13.6444 12.2427L18.6307 1.36376C19.1209 0.52558 20.0117 0.274449 20.7175 0.718641L20.7342 0.729126L20.7516 0.738269C20.9204 0.826781 21.0206 0.901495 21.0966 0.981122C21.1731 1.06137 21.2458 1.16868 21.3319 1.34911L26.5278 12.2495L26.6426 12.4902L26.9064 12.529L38.2976 14.206Z" fill="#DD5454" stroke="#DD5454"/>
</svg>
