<svg width="21" height="21" viewBox="0 0 21 21" fill="none" xmlns="http://www.w3.org/2000/svg">
<path d="M19.2483 8.46119C19.1931 8.30115 19.0926 8.16057 18.959 8.05651C18.8254 7.95245 18.6645 7.88938 18.4958 7.87494L13.5171 7.14869L11.2858 2.62494C11.2142 2.47701 11.1023 2.35224 10.963 2.26495C10.8238 2.17765 10.6627 2.13135 10.4983 2.13135C10.334 2.13135 10.1729 2.17765 10.0336 2.26495C9.89435 2.35224 9.78248 2.47701 9.71083 2.62494L7.47958 7.13994L2.50083 7.87494C2.33889 7.89796 2.18664 7.96591 2.06136 8.07108C1.93609 8.17625 1.8428 8.31443 1.79208 8.46994C1.74566 8.62191 1.74149 8.78365 1.78003 8.9378C1.81857 9.09195 1.89836 9.2327 2.01083 9.34494L5.62458 12.8449L4.74958 17.8149C4.71426 17.9798 4.72732 18.1514 4.78719 18.309C4.84707 18.4666 4.95121 18.6036 5.0871 18.7034C5.22298 18.8032 5.38481 18.8617 5.55312 18.8717C5.72143 18.8817 5.88906 18.8429 6.03583 18.7599L10.4983 16.4237L14.9608 18.7599C15.0836 18.8292 15.2223 18.8654 15.3633 18.8649C15.5487 18.8656 15.7294 18.8074 15.8796 18.6987C16.0153 18.6014 16.1204 18.4674 16.1824 18.3123C16.2445 18.1573 16.2608 17.9877 16.2296 17.8237L15.3546 12.8537L18.9683 9.35369C19.0947 9.24666 19.188 9.10598 19.2376 8.948C19.2872 8.79001 19.2909 8.62121 19.2483 8.46119ZM13.8671 11.9612C13.7658 12.0595 13.6898 12.1809 13.6456 12.315C13.6015 12.4491 13.5904 12.5919 13.6133 12.7312L14.2433 16.4062L10.9533 14.6562C10.8255 14.5929 10.6847 14.56 10.5421 14.56C10.3994 14.56 10.2587 14.5929 10.1308 14.6562L6.84083 16.4062L7.47083 12.7312C7.49379 12.5919 7.4827 12.4491 7.43852 12.315C7.39433 12.1809 7.31836 12.0595 7.21708 11.9612L4.59208 9.33619L8.27583 8.80244C8.41758 8.78273 8.55233 8.72854 8.66827 8.64464C8.78421 8.56074 8.8778 8.44968 8.94083 8.32119L10.4983 4.98744L12.1433 8.32994C12.2064 8.45843 12.3 8.56949 12.4159 8.65339C12.5318 8.73729 12.6666 8.79148 12.8083 8.81119L16.4921 9.34494L13.8671 11.9612Z" fill="#1A1930"/>
</svg>
