<svg width="21" height="21" viewBox="0 0 21 21" fill="none" xmlns="http://www.w3.org/2000/svg">
<path d="M5.7925 11.445C5.68392 11.4843 5.5853 11.547 5.50365 11.6286C5.422 11.7103 5.3593 11.8089 5.32 11.9175C5.25635 12.0765 5.24077 12.2507 5.27519 12.4185C5.30961 12.5862 5.39251 12.7402 5.51362 12.8614C5.63473 12.9825 5.78873 13.0654 5.95651 13.0998C6.12429 13.1342 6.29849 13.1186 6.4575 13.055C6.56354 13.0107 6.6612 12.9485 6.74625 12.8712C6.82354 12.7862 6.88569 12.6885 6.93 12.5825C6.97898 12.4786 7.00296 12.3648 7 12.25C6.99678 12.0183 6.90614 11.7964 6.74625 11.6287C6.6232 11.5073 6.46695 11.4251 6.29721 11.3924C6.12747 11.3597 5.95185 11.378 5.7925 11.445ZM17.29 7.94497L16.1 4.41872C15.9185 3.9053 15.5818 3.46104 15.1365 3.14749C14.6913 2.83394 14.1596 2.66662 13.615 2.66872H7.385C6.84044 2.66662 6.3087 2.83394 5.86346 3.14749C5.41822 3.46104 5.08152 3.9053 4.9 4.41872L3.71 7.97122C3.15029 8.11779 2.65468 8.44518 2.30023 8.90248C1.94577 9.35979 1.75234 9.92139 1.75 10.5V14C1.75152 14.5415 1.92052 15.0694 2.23382 15.5112C2.54712 15.9529 2.98939 16.2869 3.5 16.4675V17.5C3.5 17.732 3.59219 17.9546 3.75628 18.1187C3.92038 18.2828 4.14294 18.375 4.375 18.375C4.60706 18.375 4.82962 18.2828 4.99372 18.1187C5.15781 17.9546 5.25 17.732 5.25 17.5V16.625H15.75V17.5C15.75 17.732 15.8422 17.9546 16.0063 18.1187C16.1704 18.2828 16.3929 18.375 16.625 18.375C16.8571 18.375 17.0796 18.2828 17.2437 18.1187C17.4078 17.9546 17.5 17.732 17.5 17.5V16.4675C18.0106 16.2869 18.4529 15.9529 18.7662 15.5112C19.0795 15.0694 19.2485 14.5415 19.25 14V10.5C19.2477 9.92139 19.0542 9.35979 18.6998 8.90248C18.3453 8.44518 17.8497 8.11779 17.29 7.97122V7.94497ZM6.55375 4.96997C6.61245 4.79618 6.72429 4.64523 6.87345 4.53846C7.02261 4.43169 7.20156 4.3745 7.385 4.37497H13.615C13.8058 4.36501 13.9946 4.41778 14.1526 4.52522C14.3106 4.63266 14.4291 4.78886 14.49 4.96997L15.4088 7.87497H5.59125L6.55375 4.96997ZM17.5 14C17.5 14.232 17.4078 14.4546 17.2437 14.6187C17.0796 14.7828 16.8571 14.875 16.625 14.875H4.375C4.14294 14.875 3.92038 14.7828 3.75628 14.6187C3.59219 14.4546 3.5 14.232 3.5 14V10.5C3.5 10.2679 3.59219 10.0453 3.75628 9.88125C3.92038 9.71716 4.14294 9.62497 4.375 9.62497H16.625C16.8571 9.62497 17.0796 9.71716 17.2437 9.88125C17.4078 10.0453 17.5 10.2679 17.5 10.5V14ZM14.5425 11.445C14.4339 11.4843 14.3353 11.547 14.2536 11.6286C14.172 11.7103 14.1093 11.8089 14.07 11.9175C14.0064 12.0765 13.9908 12.2507 14.0252 12.4185C14.0596 12.5862 14.1425 12.7402 14.2636 12.8614C14.3847 12.9825 14.5387 13.0654 14.7065 13.0998C14.8743 13.1342 15.0485 13.1186 15.2075 13.055C15.3161 13.0157 15.4147 12.953 15.4964 12.8713C15.578 12.7897 15.6407 12.6911 15.68 12.5825C15.729 12.4786 15.753 12.3648 15.75 12.25C15.7468 12.0183 15.6561 11.7964 15.4962 11.6287C15.3732 11.5073 15.217 11.4251 15.0472 11.3924C14.8775 11.3597 14.7018 11.378 14.5425 11.445ZM11.375 11.375H9.625C9.39294 11.375 9.17038 11.4672 9.00628 11.6313C8.84219 11.7953 8.75 12.0179 8.75 12.25C8.75 12.482 8.84219 12.7046 9.00628 12.8687C9.17038 13.0328 9.39294 13.125 9.625 13.125H11.375C11.6071 13.125 11.8296 13.0328 11.9937 12.8687C12.1578 12.7046 12.25 12.482 12.25 12.25C12.25 12.0179 12.1578 11.7953 11.9937 11.6313C11.8296 11.4672 11.6071 11.375 11.375 11.375Z" fill="#1A1930"/>
</svg>
