<svg width="25" height="25" viewBox="0 0 25 25" fill="none" xmlns="http://www.w3.org/2000/svg">
<path d="M23.9481 4.11484C23.9483 3.93085 23.8996 3.75011 23.8072 3.59103C23.7147 3.43195 23.5817 3.30022 23.4218 3.20925C23.2619 3.11827 23.0807 3.07131 22.8967 3.07313C22.7127 3.07496 22.5325 3.12552 22.3744 3.21965C21.7647 3.58255 21.1083 3.86047 20.4234 4.04569C19.4452 3.20635 18.1977 2.74705 16.9088 2.75174C15.4948 2.75337 14.1368 3.30445 13.1215 4.2886C12.1063 5.27275 11.5132 6.61296 11.4675 8.02621C8.68001 7.58169 6.15361 6.12675 4.37009 3.93885C4.26262 3.80847 4.12538 3.70584 3.96994 3.63963C3.8145 3.57341 3.64541 3.54554 3.47694 3.55838C3.30856 3.57224 3.1461 3.62691 3.0036 3.71766C2.8611 3.80841 2.74284 3.9325 2.65906 4.07921C2.2294 4.82902 1.98264 5.66959 1.9388 6.53266C1.89497 7.39573 2.0553 8.25697 2.40678 9.04645L2.40475 9.04848C2.24678 9.14578 2.11641 9.28198 2.02611 9.44405C1.93581 9.60613 1.88861 9.78866 1.889 9.97419C1.88709 10.1272 1.89627 10.2802 1.91647 10.432C2.02286 11.7426 2.60374 12.9695 3.55018 13.8825C3.48597 14.0048 3.44679 14.1387 3.43491 14.2763C3.42303 14.4139 3.4387 14.5526 3.481 14.6841C3.89362 15.9696 4.77111 17.055 5.94174 17.7277C4.75241 18.1876 3.46822 18.3479 2.20231 18.1946C1.96801 18.1652 1.73068 18.2163 1.52924 18.3395C1.3278 18.4627 1.17422 18.6508 1.09368 18.8727C1.01315 19.0947 1.01045 19.3375 1.08602 19.5612C1.1616 19.7849 1.31096 19.9763 1.50961 20.104C3.68679 21.5062 6.22177 22.2518 8.81145 22.2514C11.7482 22.2845 14.6135 21.346 16.9617 19.5821C19.3099 17.8182 21.0093 15.3277 21.7956 12.498C22.1634 11.2653 22.3512 9.98595 22.3531 8.69959C22.3531 8.63143 22.3531 8.56124 22.3521 8.49107C22.8959 7.90453 23.3173 7.21533 23.5913 6.46387C23.8654 5.7124 23.9867 4.91379 23.9481 4.11484ZM20.5037 7.46058C20.3317 7.66406 20.2446 7.926 20.2606 8.19199C20.2708 8.36386 20.2697 8.53678 20.2697 8.69959C20.2676 9.78661 20.1083 10.8676 19.7967 11.909C19.1545 14.3167 17.7229 16.4393 15.7312 17.9367C13.7394 19.4342 11.3028 20.2199 8.81145 20.1681C7.91653 20.1684 7.0247 20.0632 6.15439 19.8548C7.26419 19.4971 8.30188 18.9457 9.21937 18.2262C9.38835 18.0931 9.51203 17.911 9.57342 17.7049C9.63481 17.4988 9.63091 17.2787 9.56226 17.0749C9.49361 16.871 9.36356 16.6934 9.18997 16.5665C9.01638 16.4395 8.80775 16.3693 8.5927 16.3656C7.7269 16.3521 6.90013 16.0031 6.28659 15.3921C6.44223 15.3626 6.59686 15.326 6.75046 15.2822C6.97547 15.2182 7.17238 15.0803 7.30948 14.8907C7.44658 14.7011 7.5159 14.471 7.50627 14.2372C7.49663 14.0035 7.40862 13.7797 7.25638 13.6021C7.10415 13.4245 6.89656 13.3032 6.66704 13.2579C6.16448 13.1587 5.69157 12.9448 5.28508 12.6331C4.87859 12.3213 4.54947 11.9201 4.32329 11.4604C4.51155 11.4861 4.70101 11.5021 4.89092 11.5082C5.11653 11.5116 5.33737 11.4432 5.52152 11.3128C5.70567 11.1824 5.84357 10.9969 5.91529 10.7829C5.98402 10.567 5.98049 10.3347 5.90522 10.121C5.82996 9.9073 5.68707 9.72398 5.49822 9.59884C5.04004 9.2936 4.66472 8.8795 4.40588 8.39359C4.14704 7.90769 4.01276 7.36517 4.01506 6.81463C4.01506 6.74546 4.0171 6.67629 4.02117 6.60813C6.35582 8.78548 9.384 10.069 12.5722 10.2326C12.7331 10.2389 12.8934 10.2086 13.0409 10.144C13.1884 10.0793 13.3193 9.98194 13.4237 9.85927C13.527 9.73542 13.6001 9.58927 13.6374 9.43235C13.6746 9.27542 13.6749 9.112 13.6382 8.95494C13.5787 8.70636 13.5483 8.45167 13.5477 8.19606C13.5487 7.30496 13.9031 6.45061 14.5332 5.8205C15.1633 5.19039 16.0176 4.83599 16.9087 4.83505C17.3672 4.83382 17.821 4.92765 18.2413 5.11062C18.6617 5.29358 19.0396 5.56171 19.3512 5.89808C19.4713 6.02733 19.6225 6.1237 19.7904 6.17801C19.9583 6.23232 20.1373 6.24278 20.3104 6.20838C20.7383 6.12511 21.1601 6.01295 21.5728 5.87269C21.2913 6.44871 20.9315 6.98305 20.5037 7.46058Z" fill="#1A1930"/>
</svg>
