<?xml version="1.0" encoding="utf-8"?>
<svg width="96px" height="96px" viewBox="0 0 96 96" version="1.1" xmlns:xlink="http://www.w3.org/1999/xlink" xmlns="http://www.w3.org/2000/svg">
  <g id="S_icon">
    <path d="M0 0L0 96L96 96L96 0L0 0L0 0Z" id="Shape" fill="#010101" fill-opacity="0" stroke="none" />
    <path d="M34 61L24 61C25.9785 75.621 37.1967 81.3235 51 80.9853C59.2322 80.7837 68.1426 77.5914 70.6952 69C75.2061 53.8176 61.9946 47.3747 50 43.3326C45.0023 41.6483 37.2906 39.1815 36.4267 32.9992C35.5547 26.7587 42.7614 22.8902 48 22.7292C55.5631 22.4967 61.1819 27.6542 62 35L71 35C70.9346 27.6805 68.4698 22.0252 61.9992 17.9946C51.6332 11.5375 31.6617 14.2028 27.3449 27C22.1806 42.3096 37.4291 48.7539 49 52.6674C54.0036 54.3598 61.1138 56.7879 61.713 63.0039C62.3343 69.4499 55.4392 72.9079 50 73.1227C41.8965 73.4426 34.9415 69.4532 34 61L34 61Z" id="Shape" fill="#FF6F01" stroke="none" />
  </g>
</svg>