<svg width="21" height="21" viewBox="0 0 21 21" fill="none" xmlns="http://www.w3.org/2000/svg">
<path d="M18.655 8.35625L17.0013 7.805L17.78 6.2475C17.8589 6.08448 17.8853 5.90097 17.8556 5.7223C17.8258 5.54364 17.7413 5.37861 17.6138 5.25L15.75 3.38625C15.6207 3.25683 15.4541 3.17118 15.2736 3.14136C15.0931 3.11154 14.9078 3.13904 14.7438 3.22L13.1863 3.99875L12.635 2.345C12.5768 2.17262 12.4663 2.02268 12.3189 1.91603C12.1714 1.80939 11.9944 1.75135 11.8125 1.75H9.1875C9.00406 1.74953 8.82512 1.80672 8.67595 1.91349C8.52679 2.02026 8.41495 2.17121 8.35625 2.345L7.805 3.99875L6.2475 3.22C6.08448 3.14106 5.90097 3.11466 5.7223 3.14443C5.54364 3.17421 5.37861 3.2587 5.25 3.38625L3.38625 5.25C3.25683 5.3793 3.17118 5.54591 3.14136 5.7264C3.11154 5.9069 3.13904 6.0922 3.22 6.25625L3.99875 7.81375L2.345 8.365C2.17262 8.42322 2.02268 8.53373 1.91603 8.68115C1.80939 8.82856 1.75135 9.00556 1.75 9.1875V11.8125C1.74953 11.9959 1.80672 12.1749 1.91349 12.3241C2.02026 12.4732 2.17121 12.5851 2.345 12.6438L3.99875 13.195L3.22 14.7525C3.14106 14.9155 3.11466 15.099 3.14443 15.2777C3.17421 15.4564 3.2587 15.6214 3.38625 15.75L5.25 17.6138C5.3793 17.7432 5.54591 17.8288 5.7264 17.8586C5.9069 17.8885 6.0922 17.861 6.25625 17.78L7.81375 17.0013L8.365 18.655C8.4237 18.8288 8.53554 18.9797 8.6847 19.0865C8.83387 19.1933 9.01281 19.2505 9.19625 19.25H11.8213C12.0047 19.2505 12.1836 19.1933 12.3328 19.0865C12.482 18.9797 12.5938 18.8288 12.6525 18.655L13.2038 17.0013L14.7613 17.78C14.9232 17.857 15.105 17.8823 15.2818 17.8525C15.4586 17.8228 15.6221 17.7394 15.75 17.6138L17.6138 15.75C17.7432 15.6207 17.8288 15.4541 17.8586 15.2736C17.8885 15.0931 17.861 14.9078 17.78 14.7438L17.0013 13.1863L18.655 12.635C18.8274 12.5768 18.9773 12.4663 19.084 12.3189C19.1906 12.1714 19.2487 11.9944 19.25 11.8125V9.1875C19.2505 9.00406 19.1933 8.82512 19.0865 8.67595C18.9797 8.52679 18.8288 8.41495 18.655 8.35625ZM17.5 11.1825L16.45 11.5325C16.2086 11.6108 15.987 11.7407 15.8008 11.9132C15.6146 12.0857 15.4681 12.2966 15.3715 12.5314C15.275 12.7661 15.2306 13.0191 15.2416 13.2727C15.2525 13.5263 15.3185 13.7745 15.435 14L15.9338 14.9975L14.9713 15.96L14 15.435C13.7756 15.3232 13.5298 15.2609 13.2793 15.2524C13.0287 15.2438 12.7793 15.2892 12.5478 15.3855C12.3163 15.4817 12.1082 15.6266 11.9376 15.8102C11.7669 15.9939 11.6377 16.2121 11.5588 16.45L11.2088 17.5H9.8175L9.4675 16.45C9.38918 16.2086 9.25927 15.987 9.08679 15.8008C8.9143 15.6146 8.70337 15.4681 8.46862 15.3715C8.23387 15.275 7.98092 15.2306 7.72732 15.2416C7.47373 15.2525 7.22555 15.3185 7 15.435L6.0025 15.9338L5.04 14.9713L5.565 14C5.68146 13.7745 5.74746 13.5263 5.75842 13.2727C5.76938 13.0191 5.72504 12.7661 5.62847 12.5314C5.53191 12.2966 5.38543 12.0857 5.1992 11.9132C5.01298 11.7407 4.79145 11.6108 4.55 11.5325L3.5 11.1825V9.8175L4.55 9.4675C4.79145 9.38918 5.01298 9.25927 5.1992 9.08679C5.38543 8.9143 5.53191 8.70337 5.62847 8.46862C5.72504 8.23387 5.76938 7.98092 5.75842 7.72732C5.74746 7.47373 5.68146 7.22555 5.565 7L5.06625 6.02875L6.02875 5.06625L7 5.565C7.22555 5.68146 7.47373 5.74746 7.72732 5.75842C7.98092 5.76938 8.23387 5.72504 8.46862 5.62847C8.70337 5.53191 8.9143 5.38543 9.08679 5.1992C9.25927 5.01298 9.38918 4.79145 9.4675 4.55L9.8175 3.5H11.1825L11.5325 4.55C11.6108 4.79145 11.7407 5.01298 11.9132 5.1992C12.0857 5.38543 12.2966 5.53191 12.5314 5.62847C12.7661 5.72504 13.0191 5.76938 13.2727 5.75842C13.5263 5.74746 13.7745 5.68146 14 5.565L14.9975 5.06625L15.96 6.02875L15.435 7C15.3232 7.22439 15.2609 7.47018 15.2524 7.72073C15.2438 7.97128 15.2892 8.22074 15.3855 8.45222C15.4817 8.68371 15.6266 8.89181 15.8102 9.06245C15.9939 9.23308 16.2121 9.36227 16.45 9.44125L17.5 9.79125V11.1825ZM10.5 7C9.80777 7 9.13108 7.20527 8.55551 7.58986C7.97994 7.97444 7.53133 8.52107 7.26642 9.16061C7.00152 9.80015 6.93221 10.5039 7.06725 11.1828C7.2023 11.8618 7.53564 12.4854 8.02513 12.9749C8.51461 13.4644 9.13825 13.7977 9.81719 13.9328C10.4961 14.0678 11.1999 13.9985 11.8394 13.7336C12.4789 13.4687 13.0256 13.0201 13.4101 12.4445C13.7947 11.8689 14 11.1922 14 10.5C14 9.57174 13.6313 8.68151 12.9749 8.02513C12.3185 7.36875 11.4283 7 10.5 7ZM10.5 12.25C10.1539 12.25 9.81554 12.1474 9.52775 11.9551C9.23997 11.7628 9.01567 11.4895 8.88321 11.1697C8.75076 10.8499 8.7161 10.4981 8.78363 10.1586C8.85115 9.81913 9.01782 9.50731 9.26257 9.26257C9.50731 9.01782 9.81913 8.85115 10.1586 8.78363C10.4981 8.7161 10.8499 8.75076 11.1697 8.88321C11.4895 9.01567 11.7628 9.23997 11.9551 9.52775C12.1474 9.81554 12.25 10.1539 12.25 10.5C12.25 10.9641 12.0656 11.4092 11.7374 11.7374C11.4092 12.0656 10.9641 12.25 10.5 12.25Z" fill="#1A1930"/>
</svg>
