<svg width="21" height="21" viewBox="0 0 21 21" fill="none" xmlns="http://www.w3.org/2000/svg">
<path d="M11.6375 10.6925C12.1044 10.2884 12.4789 9.78852 12.7355 9.2269C12.9922 8.66527 13.125 8.055 13.125 7.4375C13.125 6.27718 12.6641 5.16438 11.8436 4.34391C11.0231 3.52344 9.91032 3.0625 8.75 3.0625C7.58968 3.0625 6.47688 3.52344 5.65641 4.34391C4.83594 5.16438 4.375 6.27718 4.375 7.4375C4.37499 8.055 4.50783 8.66527 4.76448 9.2269C5.02114 9.78852 5.39562 10.2884 5.8625 10.6925C4.63762 11.2471 3.59841 12.1428 2.86911 13.2725C2.13981 14.4021 1.75129 15.7179 1.75 17.0625C1.75 17.2946 1.84219 17.5171 2.00628 17.6812C2.17038 17.8453 2.39294 17.9375 2.625 17.9375C2.85706 17.9375 3.07962 17.8453 3.24372 17.6812C3.40781 17.5171 3.5 17.2946 3.5 17.0625C3.5 15.6701 4.05312 14.3348 5.03769 13.3502C6.02226 12.3656 7.35761 11.8125 8.75 11.8125C10.1424 11.8125 11.4777 12.3656 12.4623 13.3502C13.4469 14.3348 14 15.6701 14 17.0625C14 17.2946 14.0922 17.5171 14.2563 17.6812C14.4204 17.8453 14.6429 17.9375 14.875 17.9375C15.1071 17.9375 15.3296 17.8453 15.4937 17.6812C15.6578 17.5171 15.75 17.2946 15.75 17.0625C15.7487 15.7179 15.3602 14.4021 14.6309 13.2725C13.9016 12.1428 12.8624 11.2471 11.6375 10.6925ZM8.75 10.0625C8.23082 10.0625 7.72331 9.90855 7.29163 9.62011C6.85995 9.33167 6.5235 8.9217 6.32482 8.44204C6.12614 7.96239 6.07415 7.43459 6.17544 6.92539C6.27673 6.41619 6.52673 5.94846 6.89384 5.58134C7.26096 5.21423 7.72869 4.96423 8.23789 4.86294C8.74709 4.76165 9.27489 4.81364 9.75454 5.01232C10.2342 5.211 10.6442 5.54745 10.9326 5.97913C11.221 6.41081 11.375 6.91832 11.375 7.4375C11.375 8.13369 11.0984 8.80137 10.6062 9.29366C10.1139 9.78594 9.44619 10.0625 8.75 10.0625ZM18.9962 7.98875C18.9149 7.90674 18.8181 7.84164 18.7115 7.79722C18.6049 7.7528 18.4905 7.72993 18.375 7.72993C18.2595 7.72993 18.1451 7.7528 18.0385 7.79722C17.9319 7.84164 17.8351 7.90674 17.7538 7.98875L16.0038 9.73875L15.4613 9.1875C15.3799 9.10549 15.2831 9.04039 15.1765 8.99597C15.0699 8.95155 14.9555 8.92868 14.84 8.92868C14.7245 8.92868 14.6101 8.95155 14.5035 8.99597C14.3969 9.04039 14.3001 9.10549 14.2188 9.1875C14.0558 9.35144 13.9643 9.57321 13.9643 9.80437C13.9643 10.0355 14.0558 10.2573 14.2188 10.4212L15.3913 11.5938C15.5552 11.7567 15.777 11.8482 16.0081 11.8482C16.2393 11.8482 16.4611 11.7567 16.625 11.5938L18.9613 9.2575C19.0496 9.17816 19.1209 9.08166 19.1707 8.9739C19.2206 8.86613 19.248 8.74934 19.2512 8.63064C19.2545 8.51195 19.2336 8.39382 19.1898 8.28347C19.1459 8.17312 19.0801 8.07284 18.9962 7.98875Z" fill="#1A1930"/>
</svg>
